<svg width="256" height="256" viewBox="0 0 256 256" fill="none" xmlns="http://www.w3.org/2000/svg">
<rect width="256" height="256" fill="#F5F5F5"/>
<rect width="256" height="256" fill="#0D2B45"/>
<path fill-rule="evenodd" clip-rule="evenodd" d="M79.9984 172.998L128 221L220.5 128.5L128 36L81.2613 82.7387C86.9415 81.5995 92.8339 81 98.8751 81C133.16 81 162.653 100.307 175.75 128C174.113 131.462 172.22 134.792 170.093 137.97C155.205 160.218 128.874 175 98.8751 175C92.385 175 86.0665 174.308 79.9984 172.998Z" fill="#203C56"/>
<g filter="url(#filter0_i_0_1)">
<path fill-rule="evenodd" clip-rule="evenodd" d="M128.48 49.2843L100.571 77.1936C100.007 77.1839 99.4416 77.179 98.8751 77.179C87.5997 77.179 76.8035 79.1103 66.8396 82.6406L114.338 35.1421C122.149 27.3316 134.812 27.3317 142.622 35.1421L221.818 114.338C229.629 122.149 229.629 134.812 221.818 142.622L170.145 194.296L156.003 180.154L207.676 128.48L128.48 49.2843ZM141.154 195.003L128.48 207.676L99.6222 178.818C99.3734 178.82 99.1244 178.821 98.8751 178.821C87.0276 178.821 75.7092 176.689 65.3295 172.81L114.338 221.818C122.149 229.629 134.812 229.629 142.622 221.818L155.296 209.145L141.154 195.003Z" fill="url(#paint0_linear_0_1)"/>
</g>
<path fill-rule="evenodd" clip-rule="evenodd" d="M96 174.955V81.0454C89.4491 81.2525 83.0881 82.1647 77 83.7039V172.296C83.0881 173.835 89.4491 174.747 96 174.955ZM109 174.432C113.803 173.89 118.481 172.967 123 171.695V84.3046C118.481 83.0334 113.803 82.1101 109 81.5677V174.432ZM139 165.428C136.728 166.591 134.393 167.658 132 168.624V87.3759C134.393 88.3417 136.728 89.409 139 90.572V165.428ZM145 162.045C158.416 153.748 169.159 141.936 175.75 128C169.159 114.064 158.416 102.252 145 93.955V162.045ZM58 90.9607C61.2099 89.2775 64.5491 87.7864 68 86.504V169.496C64.5491 168.214 61.2099 166.722 58 165.039V90.9607ZM52 94.4245C38.9333 102.695 28.4675 114.325 22 128C28.4675 141.675 38.9333 153.305 52 161.576V94.4245Z" fill="url(#paint1_linear_0_1)"/>
<defs>
<filter id="filter0_i_0_1" x="65.3295" y="29.2843" width="162.347" height="202.392" filterUnits="userSpaceOnUse" color-interpolation-filters="sRGB">
<feFlood flood-opacity="0" result="BackgroundImageFix"/>
<feBlend mode="normal" in="SourceGraphic" in2="BackgroundImageFix" result="shape"/>
<feColorMatrix in="SourceAlpha" type="matrix" values="0 0 0 0 0 0 0 0 0 0 0 0 0 0 0 0 0 0 127 0" result="hardAlpha"/>
<feOffset dy="4"/>
<feGaussianBlur stdDeviation="2"/>
<feComposite in2="hardAlpha" operator="arithmetic" k2="-1" k3="1"/>
<feColorMatrix type="matrix" values="0 0 0 0 0 0 0 0 0 0 0 0 0 0 0 0 0 0 0.25 0"/>
<feBlend mode="normal" in2="shape" result="effect1_innerShadow_0_1"/>
</filter>
<linearGradient id="paint0_linear_0_1" x1="146.503" y1="29.2843" x2="146.503" y2="227.676" gradientUnits="userSpaceOnUse">
<stop stop-color="#D08159"/>
<stop offset="0.447917" stop-color="#D48459"/>
<stop offset="1" stop-color="#FFAA5E"/>
</linearGradient>
<linearGradient id="paint1_linear_0_1" x1="73.5" y1="87" x2="145" y2="164.5" gradientUnits="userSpaceOnUse">
<stop stop-color="#FFD4A3"/>
<stop offset="0.629933" stop-color="#FFAA5E"/>
<stop offset="1" stop-color="#D08159"/>
</linearGradient>
</defs>
</svg>
